<svg id="kity_svg_6" xmlns="http://www.w3.org/2000/svg" xmlns:xlink="http://www.w3.org/1999/xlink" version="1.1" width="706" height="2914" style="background: rgb(251, 251, 251); visibility: visible;" viewBox="0 0 706 2914"><defs id="kity_defs_7"><linearGradient id="kity_linearGradient_17" x1="0" y1="0" x2="0" y2="1"><stop id="kity_stop_18" offset="0" stop-color="rgb(255, 255, 255)"></stop><stop id="kity_stop_19" offset="1" stop-color="rgb(204, 204, 204)"></stop></linearGradient><marker id="kity_marker_2" orient="auto" refX="6" refY="0" viewBox="-7 -7 14 14" markerWidth="7" markerHeight="7" markerUnits="userSpaceOnUse"><path id="kity_path_3" fill="rgb(115, 191, 118)" stroke="none" d="M6,0A6,6,0,1,1,-6,0A6,6,0,1,1,6,0"></path></marker></defs><g id="kity_g_8"><g id="minder1" text-rendering="geometricPrecision"><g id="minder_connect_group1"><path id="kity_path_31" fill="none" stroke="rgb(115, 191, 118)" stroke-width="1" d="M63.50000435858965,1348.5000228956342A161,492,0,0,1,224.50000435858965,856.5000228956342"></path><path id="kity_path_39" fill="none" stroke="rgb(115, 191, 118)" stroke-width="1" d="M329.50000435858965,856.5000228956342C351.50000435858965,856.5000228956342,351.50000435858965,474.5000228956342,373.50000435858965,474.5000228956342L451.50000435858965,474.5000228956342"></path><path id="kity_path_47" fill="none" stroke="rgb(115, 191, 118)" stroke-width="1" d="M329.50000435858965,856.5000228956342C344.50000435858965,856.5000228956342,344.50000435858965,1072.5000228956342,359.50000435858965,1072.5000228956342L437.50000435858965,1072.5000228956342"></path><path id="kity_path_55" fill="none" stroke="rgb(115, 191, 118)" stroke-width="1" d="M329.50000435858965,856.5000228956342C344.50000435858965,856.5000228956342,344.50000435858965,1280.5000228956342,359.50000435858965,1280.5000228956342L413.50000435858965,1280.5000228956342"></path><path id="kity_path_300" fill="none" stroke="rgb(115, 191, 118)" stroke-width="1" d="M437.50000435858965,1072.5000228956342C452.50000435858965,1072.5000228956342,452.50000435858965,968.5000228956342,467.50000435858965,968.5000228956342L545.5000043585896,968.5000228956342"></path><path id="kity_path_308" fill="none" stroke="rgb(115, 191, 118)" stroke-width="1" d="M437.50000435858965,1072.5000228956342C452.50000435858965,1072.5000228956342,452.50000435858965,1020.5000228956342,467.50000435858965,1020.5000228956342L545.5000043585896,1020.5000228956342"></path><path id="kity_path_316" fill="none" stroke="rgb(115, 191, 118)" stroke-width="1" d="M437.50000435858965,1072.5000228956342C452.50000435858965,1072.5000228956342,452.50000435858965,1072.5000228956342,467.50000435858965,1072.5000228956342L557.5000043585896,1072.5000228956342"></path><path id="kity_path_324" fill="none" stroke="rgb(115, 191, 118)" stroke-width="1" d="M437.50000435858965,1072.5000228956342C452.50000435858965,1072.5000228956342,452.50000435858965,1124.5000228956342,467.50000435858965,1124.5000228956342L545.5000043585896,1124.5000228956342"></path><path id="kity_path_340" fill="none" stroke="rgb(115, 191, 118)" stroke-width="1" d="M437.50000435858965,1072.5000228956342C452.50000435858965,1072.5000228956342,452.50000435858965,1176.5000228956342,467.50000435858965,1176.5000228956342L545.5000043585896,1176.5000228956342"></path><path id="kity_path_348" fill="none" stroke="rgb(115, 191, 118)" stroke-width="1" d="M413.50000435858965,1280.5000228956342C428.50000435858965,1280.5000228956342,428.50000435858965,1228.5000228956342,443.50000435858965,1228.5000228956342L497.50000435858965,1228.5000228956342"></path><path id="kity_path_356" fill="none" stroke="rgb(115, 191, 118)" stroke-width="1" d="M413.50000435858965,1280.5000228956342C428.50000435858965,1280.5000228956342,428.50000435858965,1280.5000228956342,443.50000435858965,1280.5000228956342L497.50000435858965,1280.5000228956342"></path><path id="kity_path_364" fill="none" stroke="rgb(115, 191, 118)" stroke-width="1" d="M413.50000435858965,1280.5000228956342C428.50000435858965,1280.5000228956342,428.50000435858965,1332.5000228956342,443.50000435858965,1332.5000228956342L521.5000043585896,1332.5000228956342"></path><path id="kity_path_372" fill="none" stroke="rgb(115, 191, 118)" stroke-width="1" d="M63.50000435858965,1348.5000228956342A90,686,0,0,0,153.50000435858965,2034.5000228956342"></path><path id="kity_path_412" fill="none" stroke="rgb(115, 191, 118)" stroke-width="1" d="M535.5000043585896,71.50002289563417C550.5000043585896,71.50002289563417,550.5000043585896,45.500022895634174,565.5000043585896,45.500022895634174L619.5000043585896,45.500022895634174"></path><path id="kity_path_413" fill="none" stroke="rgb(115, 191, 118)" stroke-width="1" d="M535.5000043585896,71.50002289563417C550.5000043585896,71.50002289563417,550.5000043585896,97.50002289563417,565.5000043585896,97.50002289563417L619.5000043585896,97.50002289563417"></path><path id="kity_path_414" fill="none" stroke="rgb(115, 191, 118)" stroke-width="1" d="M451.50000435858965,474.5000228956342C466.50000435858965,474.5000228956342,466.50000435858965,71.50002289563417,481.50000435858965,71.50002289563417L535.5000043585896,71.50002289563417"></path><path id="kity_path_415" fill="none" stroke="rgb(115, 191, 118)" stroke-width="1" d="M451.50000435858965,474.5000228956342C466.50000435858965,474.5000228956342,466.50000435858965,149.50002289563417,481.50000435858965,149.50002289563417L559.5000043585896,149.50002289563417"></path><path id="kity_path_416" fill="none" stroke="rgb(115, 191, 118)" stroke-width="1" d="M559.5000043585896,227.50002289563417C574.5000043585896,227.50002289563417,574.5000043585896,201.50002289563417,589.5000043585896,201.50002289563417L638.5000043585896,201.50002289563417"></path><path id="kity_path_417" fill="none" stroke="rgb(115, 191, 118)" stroke-width="1" d="M559.5000043585896,227.50002289563417C574.5000043585896,227.50002289563417,574.5000043585896,253.50002289563417,589.5000043585896,253.50002289563417L643.5000043585896,253.50002289563417"></path><path id="kity_path_418" fill="none" stroke="rgb(115, 191, 118)" stroke-width="1" d="M451.50000435858965,474.5000228956342C466.50000435858965,474.5000228956342,466.50000435858965,227.50002289563417,481.50000435858965,227.50002289563417L559.5000043585896,227.50002289563417"></path><path id="kity_path_419" fill="none" stroke="rgb(115, 191, 118)" stroke-width="1" d="M583.5000043585896,331.5000228956342C598.5000043585896,331.5000228956342,598.5000043585896,305.5000228956342,613.5000043585896,305.5000228956342L678.5000043585896,305.5000228956342"></path><path id="kity_path_420" fill="none" stroke="rgb(115, 191, 118)" stroke-width="1" d="M583.5000043585896,331.5000228956342C598.5000043585896,331.5000228956342,598.5000043585896,357.5000228956342,613.5000043585896,357.5000228956342L685.5000043585896,357.5000228956342"></path><path id="kity_path_421" fill="none" stroke="rgb(115, 191, 118)" stroke-width="1" d="M451.50000435858965,474.5000228956342C466.50000435858965,474.5000228956342,466.50000435858965,331.5000228956342,481.50000435858965,331.5000228956342L583.5000043585896,331.5000228956342"></path><path id="kity_path_422" fill="none" stroke="rgb(115, 191, 118)" stroke-width="1" d="M559.5000043585896,435.5000228956342C574.5000043585896,435.5000228956342,574.5000043585896,409.5000228956342,589.5000043585896,409.5000228956342L667.5000043585896,409.5000228956342"></path><path id="kity_path_423" fill="none" stroke="rgb(115, 191, 118)" stroke-width="1" d="M559.5000043585896,435.5000228956342C574.5000043585896,435.5000228956342,574.5000043585896,461.5000228956342,589.5000043585896,461.5000228956342L667.5000043585896,461.5000228956342"></path><path id="kity_path_424" fill="none" stroke="rgb(115, 191, 118)" stroke-width="1" d="M451.50000435858965,474.5000228956342C466.50000435858965,474.5000228956342,466.50000435858965,435.5000228956342,481.50000435858965,435.5000228956342L559.5000043585896,435.5000228956342"></path><path id="kity_path_425" fill="none" stroke="rgb(115, 191, 118)" stroke-width="1" d="M547.5000043585896,539.5000228956342C562.5000043585896,539.5000228956342,562.5000043585896,513.5000228956342,577.5000043585896,513.5000228956342L631.5000043585896,513.5000228956342"></path><path id="kity_path_426" fill="none" stroke="rgb(115, 191, 118)" stroke-width="1" d="M547.5000043585896,539.5000228956342C562.5000043585896,539.5000228956342,562.5000043585896,565.5000228956342,577.5000043585896,565.5000228956342L631.5000043585896,565.5000228956342"></path><path id="kity_path_427" fill="none" stroke="rgb(115, 191, 118)" stroke-width="1" d="M451.50000435858965,474.5000228956342C466.50000435858965,474.5000228956342,466.50000435858965,539.5000228956342,481.50000435858965,539.5000228956342L547.5000043585896,539.5000228956342"></path><path id="kity_path_428" fill="none" stroke="rgb(115, 191, 118)" stroke-width="1" d="M547.5000043585896,669.5000228956342C562.5000043585896,669.5000228956342,562.5000043585896,617.5000228956342,577.5000043585896,617.5000228956342L643.5000043585896,617.5000228956342"></path><path id="kity_path_429" fill="none" stroke="rgb(115, 191, 118)" stroke-width="1" d="M547.5000043585896,669.5000228956342C562.5000043585896,669.5000228956342,562.5000043585896,669.5000228956342,577.5000043585896,669.5000228956342L626.5000043585896,669.5000228956342"></path><path id="kity_path_430" fill="none" stroke="rgb(115, 191, 118)" stroke-width="1" d="M547.5000043585896,669.5000228956342C562.5000043585896,669.5000228956342,562.5000043585896,721.5000228956342,577.5000043585896,721.5000228956342L655.5000043585896,721.5000228956342"></path><path id="kity_path_431" fill="none" stroke="rgb(115, 191, 118)" stroke-width="1" d="M451.50000435858965,474.5000228956342C466.50000435858965,474.5000228956342,466.50000435858965,669.5000228956342,481.50000435858965,669.5000228956342L547.5000043585896,669.5000228956342"></path><path id="kity_path_432" fill="none" stroke="rgb(115, 191, 118)" stroke-width="1" d="M559.5000043585896,773.5000228956342C574.5000043585896,773.5000228956342,574.5000043585896,773.5000228956342,589.5000043585896,773.5000228956342L667.5000043585896,773.5000228956342"></path><path id="kity_path_433" fill="none" stroke="rgb(115, 191, 118)" stroke-width="1" d="M451.50000435858965,474.5000228956342C466.50000435858965,474.5000228956342,466.50000435858965,773.5000228956342,481.50000435858965,773.5000228956342L559.5000043585896,773.5000228956342"></path><path id="kity_path_434" fill="none" stroke="rgb(115, 191, 118)" stroke-width="1" d="M559.5000043585896,877.5000228956342C574.5000043585896,877.5000228956342,574.5000043585896,825.5000228956342,589.5000043585896,825.5000228956342L643.5000043585896,825.5000228956342"></path><path id="kity_path_435" fill="none" stroke="rgb(115, 191, 118)" stroke-width="1" d="M559.5000043585896,877.5000228956342C574.5000043585896,877.5000228956342,574.5000043585896,877.5000228956342,589.5000043585896,877.5000228956342L643.5000043585896,877.5000228956342"></path><path id="kity_path_436" fill="none" stroke="rgb(115, 191, 118)" stroke-width="1" d="M559.5000043585896,877.5000228956342C574.5000043585896,877.5000228956342,574.5000043585896,929.5000228956342,589.5000043585896,929.5000228956342L655.5000043585896,929.5000228956342"></path><path id="kity_path_437" fill="none" stroke="rgb(115, 191, 118)" stroke-width="1" d="M451.50000435858965,474.5000228956342C466.50000435858965,474.5000228956342,466.50000435858965,877.5000228956342,481.50000435858965,877.5000228956342L559.5000043585896,877.5000228956342"></path><path id="kity_path_723" fill="none" stroke="rgb(115, 191, 118)" stroke-width="1" d="M63.50000435858965,1348.5000228956342A59,1393,0,0,0,122.50000435858965,2741.500022895634"></path><path id="kity_path_910" fill="none" stroke="rgb(115, 191, 118)" stroke-width="1" d="M258.50000435858965,2034.5000228956342C276.00000435858965,2034.5000228956342,276.00000435858965,1587.5000228956342,293.50000435858965,1587.5000228956342L371.50000435858965,1587.5000228956342"></path><path id="kity_path_912" fill="none" stroke="rgb(115, 191, 118)" stroke-width="1" d="M258.50000435858965,2034.5000228956342C273.50000435858965,2034.5000228956342,273.50000435858965,1639.5000228956342,288.50000435858965,1639.5000228956342L402.50000435858965,1639.5000228956342"></path><path id="kity_path_913" fill="none" stroke="rgb(115, 191, 118)" stroke-width="1" d="M450.50000435858965,1743.5000228956342C465.50000435858965,1743.5000228956342,465.50000435858965,1691.5000228956342,480.50000435858965,1691.5000228956342L582.5000043585896,1691.5000228956342"></path><path id="kity_path_914" fill="none" stroke="rgb(115, 191, 118)" stroke-width="1" d="M450.50000435858965,1743.5000228956342C465.50000435858965,1743.5000228956342,465.50000435858965,1743.5000228956342,480.50000435858965,1743.5000228956342L558.5000043585896,1743.5000228956342"></path><path id="kity_path_915" fill="none" stroke="rgb(115, 191, 118)" stroke-width="1" d="M450.50000435858965,1743.5000228956342C465.50000435858965,1743.5000228956342,465.50000435858965,1795.5000228956342,480.50000435858965,1795.5000228956342L582.5000043585896,1795.5000228956342"></path><path id="kity_path_916" fill="none" stroke="rgb(115, 191, 118)" stroke-width="1" d="M366.50000435858965,1821.5000228956342C381.50000435858965,1821.5000228956342,381.50000435858965,1743.5000228956342,396.50000435858965,1743.5000228956342L450.50000435858965,1743.5000228956342"></path><path id="kity_path_917" fill="none" stroke="rgb(115, 191, 118)" stroke-width="1" d="M450.50000435858965,1899.5000228956342C465.50000435858965,1899.5000228956342,465.50000435858965,1847.5000228956342,480.50000435858965,1847.5000228956342L556.5000043585896,1847.5000228956342"></path><path id="kity_path_918" fill="none" stroke="rgb(115, 191, 118)" stroke-width="1" d="M450.50000435858965,1899.5000228956342C465.50000435858965,1899.5000228956342,465.50000435858965,1899.5000228956342,480.50000435858965,1899.5000228956342L582.5000043585896,1899.5000228956342"></path><path id="kity_path_919" fill="none" stroke="rgb(115, 191, 118)" stroke-width="1" d="M450.50000435858965,1899.5000228956342C465.50000435858965,1899.5000228956342,465.50000435858965,1951.5000228956342,480.50000435858965,1951.5000228956342L582.5000043585896,1951.5000228956342"></path><path id="kity_path_920" fill="none" stroke="rgb(115, 191, 118)" stroke-width="1" d="M366.50000435858965,1821.5000228956342C381.50000435858965,1821.5000228956342,381.50000435858965,1899.5000228956342,396.50000435858965,1899.5000228956342L450.50000435858965,1899.5000228956342"></path><path id="kity_path_921" fill="none" stroke="rgb(115, 191, 118)" stroke-width="1" d="M258.50000435858965,2034.5000228956342C273.50000435858965,2034.5000228956342,273.50000435858965,1821.5000228956342,288.50000435858965,1821.5000228956342L366.50000435858965,1821.5000228956342"></path><path id="kity_path_922" fill="none" stroke="rgb(115, 191, 118)" stroke-width="1" d="M366.50000435858965,2113.500022895634C381.50000435858965,2113.500022895634,381.50000435858965,2003.5000228956342,396.50000435858965,2003.5000228956342L450.50000435858965,2003.5000228956342"></path><path id="kity_path_923" fill="none" stroke="rgb(115, 191, 118)" stroke-width="1" d="M558.5000043585896,2133.500022895634C573.5000043585896,2133.500022895634,573.5000043585896,2055.500022895634,588.5000043585896,2055.500022895634L637.5000043585896,2055.500022895634"></path><path id="kity_path_924" fill="none" stroke="rgb(115, 191, 118)" stroke-width="1" d="M558.5000043585896,2133.500022895634C573.5000043585896,2133.500022895634,573.5000043585896,2107.500022895634,588.5000043585896,2107.500022895634L641.5000043585896,2107.500022895634"></path><path id="kity_path_925" fill="none" stroke="rgb(115, 191, 118)" stroke-width="1" d="M558.5000043585896,2133.500022895634C573.5000043585896,2133.500022895634,573.5000043585896,2159.500022895634,588.5000043585896,2159.500022895634L663.5000043585896,2159.500022895634"></path><path id="kity_path_926" fill="none" stroke="rgb(115, 191, 118)" stroke-width="1" d="M558.5000043585896,2133.500022895634C573.5000043585896,2133.500022895634,573.5000043585896,2211.500022895634,588.5000043585896,2211.500022895634L644.5000043585896,2211.500022895634"></path><path id="kity_path_927" fill="none" stroke="rgb(115, 191, 118)" stroke-width="1" d="M450.50000435858965,2224.500022895634C465.50000435858965,2224.500022895634,465.50000435858965,2133.500022895634,480.50000435858965,2133.500022895634L558.5000043585896,2133.500022895634"></path><path id="kity_path_928" fill="none" stroke="rgb(115, 191, 118)" stroke-width="1" d="M558.5000043585896,2315.500022895634C573.5000043585896,2315.500022895634,573.5000043585896,2263.500022895634,588.5000043585896,2263.500022895634L641.5000043585896,2263.500022895634"></path><path id="kity_path_929" fill="none" stroke="rgb(115, 191, 118)" stroke-width="1" d="M558.5000043585896,2315.500022895634C573.5000043585896,2315.500022895634,573.5000043585896,2315.500022895634,588.5000043585896,2315.500022895634L686.5000043585896,2315.500022895634"></path><path id="kity_path_930" fill="none" stroke="rgb(115, 191, 118)" stroke-width="1" d="M558.5000043585896,2315.500022895634C573.5000043585896,2315.500022895634,573.5000043585896,2367.500022895634,588.5000043585896,2367.500022895634L640.5000043585896,2367.500022895634"></path><path id="kity_path_931" fill="none" stroke="rgb(115, 191, 118)" stroke-width="1" d="M450.50000435858965,2224.500022895634C465.50000435858965,2224.500022895634,465.50000435858965,2315.500022895634,480.50000435858965,2315.500022895634L558.5000043585896,2315.500022895634"></path><path id="kity_path_932" fill="none" stroke="rgb(115, 191, 118)" stroke-width="1" d="M366.50000435858965,2113.500022895634C381.50000435858965,2113.500022895634,381.50000435858965,2224.500022895634,396.50000435858965,2224.500022895634L450.50000435858965,2224.500022895634"></path><path id="kity_path_933" fill="none" stroke="rgb(115, 191, 118)" stroke-width="1" d="M258.50000435858965,2034.5000228956342C273.50000435858965,2034.5000228956342,273.50000435858965,2113.500022895634,288.50000435858965,2113.500022895634L366.50000435858965,2113.500022895634"></path><path id="kity_path_934" fill="none" stroke="rgb(115, 191, 118)" stroke-width="1" d="M444.50000435858965,2486.500022895634C459.50000435858965,2486.500022895634,459.50000435858965,2460.500022895634,474.50000435858965,2460.500022895634L526.5000043585896,2460.500022895634"></path><path id="kity_path_935" fill="none" stroke="rgb(115, 191, 118)" stroke-width="1" d="M444.50000435858965,2486.500022895634C459.50000435858965,2486.500022895634,459.50000435858965,2512.500022895634,474.50000435858965,2512.500022895634L527.5000043585896,2512.500022895634"></path><path id="kity_path_936" fill="none" stroke="rgb(115, 191, 118)" stroke-width="1" d="M360.50000435858965,2510.500022895634C375.50000435858965,2510.500022895634,375.50000435858965,2486.500022895634,390.50000435858965,2486.500022895634L444.50000435858965,2486.500022895634"></path><path id="kity_path_937" fill="none" stroke="rgb(115, 191, 118)" stroke-width="1" d="M360.50000435858965,2510.500022895634C375.00000435858965,2510.500022895634,375.00000435858965,2567.500022895634,389.50000435858965,2567.500022895634L443.50000435858965,2567.500022895634"></path><path id="kity_path_938" fill="none" stroke="rgb(115, 191, 118)" stroke-width="1" d="M360.50000435858965,2510.500022895634C374.00000435858965,2510.500022895634,374.00000435858965,2430.500022895634,387.50000435858965,2430.500022895634L441.50000435858965,2430.500022895634"></path><path id="kity_path_939" fill="none" stroke="rgb(115, 191, 118)" stroke-width="1" d="M258.50000435858965,2034.5000228956342C273.50000435858965,2034.5000228956342,273.50000435858965,2510.500022895634,288.50000435858965,2510.500022895634L360.50000435858965,2510.500022895634"></path><path id="kity_path_941" fill="none" stroke="rgb(115, 191, 118)" stroke-width="1" d="M227.50000435858965,2741.500022895634C259.00000435858965,2741.500022895634,259.00000435858965,2582.500022895634,290.50000435858965,2582.500022895634L368.50000435858965,2582.500022895634"></path><path id="kity_path_949" fill="none" stroke="rgb(115, 191, 118)" stroke-width="1" d="M227.50000435858965,2741.500022895634C253.50000435858965,2741.500022895634,253.50000435858965,2736.500022895634,279.50000435858965,2736.500022895634L357.50000435858965,2736.500022895634"></path><path id="kity_path_957" fill="none" stroke="rgb(115, 191, 118)" stroke-width="1" d="M227.50000435858965,2741.500022895634C251.50000435858965,2741.500022895634,251.50000435858965,2894.500022895634,275.50000435858965,2894.500022895634L353.50000435858965,2894.500022895634"></path><path id="kity_path_980" fill="none" stroke="rgb(115, 191, 118)" stroke-width="1" d="M368.50000435858965,2582.500022895634C411.50000435858965,2582.500022895634,411.50000435858965,2537.500022895634,454.50000435858965,2537.500022895634L508.50000435858965,2537.500022895634"></path><path id="kity_path_981" fill="none" stroke="rgb(115, 191, 118)" stroke-width="1" d="M368.50000435858965,2582.500022895634C413.00000435858965,2582.500022895634,413.00000435858965,2608.500022895634,457.50000435858965,2608.500022895634L511.50000435858965,2608.500022895634"></path><path id="kity_path_983" fill="none" stroke="rgb(115, 191, 118)" stroke-width="1" d="M357.50000435858965,2736.500022895634C395.50000435858965,2736.500022895634,395.50000435858965,2746.500022895634,433.50000435858965,2746.500022895634L487.50000435858965,2746.500022895634"></path><path id="kity_path_991" fill="none" stroke="rgb(115, 191, 118)" stroke-width="1" d="M357.50000435858965,2736.500022895634C399.00000435858965,2736.500022895634,399.00000435858965,2690.500022895634,440.50000435858965,2690.500022895634L494.50000435858965,2690.500022895634"></path><path id="kity_path_999" fill="none" stroke="rgb(115, 191, 118)" stroke-width="1" d="M63.50000435858965,1348.5000228956342A170,63,0,0,0,233.50000435858965,1411.5000228956342"></path></g><g id="minder_node1"><path id="node_outline1" fill="rgb(115, 191, 118)" stroke="rgb(115, 191, 118)" d="M25.50000435858965,1328.5000228956342h76a5,5,0,0,1,5,5v30a5,5,0,0,1,-5,5h-76a5,5,0,0,1,-5,-5v-30a5,5,0,0,1,5,-5z" stroke-width="3"></path><g id="node_text1" fill="white"><text id="kity_text_22" text-rendering="inherit" font-size="16" dy=".8em" y="1340.5000228956342" x="44.50000435858965">Linux</text></g></g><g id="kity_g_14" display="none"><path id="kity_path_15" fill="rgba(0, 92, 153, 0.5)" stroke="none" d="M443.50000435858965,2779.500022895634h44v15h-44z"></path><path id="kity_path_16" fill="none" stroke="rgb(0, 76, 128)" d="M443.50000435858965,2794.500022895634L487.50000435858965,2794.500022895634" stroke-width="1"></path></g><g id="minder_node2"><g id="node_expander1" style="cursor: pointer;"><path id="kity_path_36" fill="white" stroke="gray" d="M225.50000696629286,856.5000155642629A6,6,0,1,1,213.50000696629286,856.5000155642629A6,6,0,1,1,225.50000696629286,856.5000155642629"></path><path id="kity_path_37" fill="none" stroke="gray" d="M215.00000696629286,856.5000155642629L224.00000696629286,856.5000155642629"></path></g><path id="node_outline2" fill="rgb(238, 246, 238)" stroke="rgb(115, 191, 118)" d="M229.5000073686242,843.5000155642629h97a3,3,0,0,1,3,3v20a3,3,0,0,1,-3,3h-97a3,3,0,0,1,-3,-3v-20a3,3,0,0,1,3,-3z" stroke-width="1"></path><g id="node_text2" fill="black"><text id="kity_text_33" text-rendering="inherit" font-size="14" dy=".8em" y="849.5000155642629" x="246.5000073686242">Linux基础</text></g></g><g id="minder_node3" opacity="1"><g id="node_expander2" style="cursor: pointer;"><path id="kity_path_44" fill="white" stroke="gray" d="M383.5000093206763,460.50000966340303A6,6,0,1,1,371.5000093206763,460.50000966340303A6,6,0,1,1,383.5000093206763,460.50000966340303"></path><path id="kity_path_45" fill="none" stroke="gray" d="M373.0000093206763,460.50000966340303L382.0000093206763,460.50000966340303"></path></g><path id="node_outline3" fill="none" stroke="none" d="M388.5000095590949,449.50000966340303h58a5,5,0,0,1,5,5v12a5,5,0,0,1,-5,5h-58a5,5,0,0,1,-5,-5v-12a5,5,0,0,1,5,-5z" stroke-width="3"></path><g id="node_text3" fill="black"><text id="kity_text_41" text-rendering="inherit" font-size="12" dy=".8em" y="454.50000966340303" x="393.5000095590949">基本操作</text></g></g><g id="minder_node4"><g id="node_expander3" style="cursor: pointer;"><path id="kity_path_52" fill="white" stroke="gray" d="M369.50000911206007,1058.5000185742974A6,6,0,1,1,357.50000911206007,1058.5000185742974A6,6,0,1,1,369.50000911206007,1058.5000185742974"></path><path id="kity_path_53" fill="none" stroke="gray" d="M359.00000911206007,1058.5000185742974L368.00000911206007,1058.5000185742974"></path></g><path id="node_outline4" fill="none" stroke="none" d="M374.50000935047865,1047.5000185742974h58a5,5,0,0,1,5,5v12a5,5,0,0,1,-5,5h-58a5,5,0,0,1,-5,-5v-12a5,5,0,0,1,5,-5z" stroke-width="3"></path><g id="node_text4" fill="black"><text id="kity_text_49" text-rendering="inherit" font-size="12" dy=".8em" y="1052.5000185742974" x="379.50000935047865">服务操作</text></g></g><g id="minder_node5"><g id="node_expander4" style="cursor: pointer;"><path id="kity_path_60" fill="white" stroke="gray" d="M369.50000911206007,1266.500021673739A6,6,0,1,1,357.50000911206007,1266.500021673739A6,6,0,1,1,369.50000911206007,1266.500021673739"></path><path id="kity_path_61" fill="none" stroke="gray" d="M359.00000911206007,1266.500021673739L368.00000911206007,1266.500021673739"></path></g><path id="node_outline5" fill="none" stroke="none" d="M374.50000935047865,1255.500021673739h34a5,5,0,0,1,5,5v12a5,5,0,0,1,-5,5h-34a5,5,0,0,1,-5,-5v-12a5,5,0,0,1,5,-5z" stroke-width="3"></path><g id="node_text5" fill="black"><text id="kity_text_57" text-rendering="inherit" font-size="12" dy=".8em" y="1260.500021673739" x="379.50000935047865">内核</text></g></g><g id="minder_node35"><g id="node_expander34" style="cursor: pointer;" display="none"><path id="kity_path_305" fill="white" stroke="gray" d="M477.5000107213855,954.5000170245767A6,6,0,1,1,465.5000107213855,954.5000170245767A6,6,0,1,1,477.5000107213855,954.5000170245767"></path><path id="kity_path_306" fill="none" stroke="gray"></path></g><path id="node_outline35" fill="none" stroke="none" d="M482.50001095980406,943.5000170245767h58a5,5,0,0,1,5,5v12a5,5,0,0,1,-5,5h-58a5,5,0,0,1,-5,-5v-12a5,5,0,0,1,5,-5z" stroke-width="3"></path><g id="node_text35" fill="black"><text id="kity_text_302" text-rendering="inherit" font-size="12" dy=".8em" y="948.5000170245767" x="487.50001095980406">开启服务</text></g></g><g id="minder_node36"><g id="node_expander35" style="cursor: pointer;" display="none"><path id="kity_path_313" fill="white" stroke="gray" d="M477.5000107213855,1006.500017799437A6,6,0,1,1,465.5000107213855,1006.500017799437A6,6,0,1,1,477.5000107213855,1006.500017799437"></path><path id="kity_path_314" fill="none" stroke="gray"></path></g><path id="node_outline36" fill="none" stroke="none" d="M482.50001095980406,995.500017799437h58a5,5,0,0,1,5,5v12a5,5,0,0,1,-5,5h-58a5,5,0,0,1,-5,-5v-12a5,5,0,0,1,5,-5z" stroke-width="3"></path><g id="node_text36" fill="black"><text id="kity_text_310" text-rendering="inherit" font-size="12" dy=".8em" y="1000.500017799437" x="487.50001095980406">关闭服务</text></g></g><g id="minder_node37"><g id="node_expander36" style="cursor: pointer;" display="none"><path id="kity_path_321" fill="white" stroke="gray" d="M477.5000107213855,1058.5000185742974A6,6,0,1,1,465.5000107213855,1058.5000185742974A6,6,0,1,1,477.5000107213855,1058.5000185742974"></path><path id="kity_path_322" fill="none" stroke="gray"></path></g><path id="node_outline37" fill="none" stroke="none" d="M482.50001095980406,1047.5000185742974h70a5,5,0,0,1,5,5v12a5,5,0,0,1,-5,5h-70a5,5,0,0,1,-5,-5v-12a5,5,0,0,1,5,-5z" stroke-width="3"></path><g id="node_text37" fill="black"><text id="kity_text_318" text-rendering="inherit" font-size="12" dy=".8em" y="1052.5000185742974" x="487.50001095980406">服务自启动</text></g></g><g id="minder_node38"><g id="node_expander37" style="cursor: pointer;" display="none"><path id="kity_path_329" fill="white" stroke="gray" d="M477.5000107213855,1110.5000193491578A6,6,0,1,1,465.5000107213855,1110.5000193491578A6,6,0,1,1,477.5000107213855,1110.5000193491578"></path><path id="kity_path_330" fill="none" stroke="gray"></path></g><path id="node_outline38" fill="none" stroke="none" d="M482.50001095980406,1099.5000193491578h58a5,5,0,0,1,5,5v12a5,5,0,0,1,-5,5h-58a5,5,0,0,1,-5,-5v-12a5,5,0,0,1,5,-5z" stroke-width="3"></path><g id="node_text38" fill="black"><text id="kity_text_326" text-rendering="inherit" font-size="12" dy=".8em" y="1104.5000193491578" x="487.50001095980406">重启服务</text></g></g><g id="minder_node40"><g id="node_expander39" style="cursor: pointer;" display="none"><path id="kity_path_345" fill="white" stroke="gray" d="M477.5000107213855,1162.5000201240182A6,6,0,1,1,465.5000107213855,1162.5000201240182A6,6,0,1,1,477.5000107213855,1162.5000201240182"></path><path id="kity_path_346" fill="none" stroke="gray"></path></g><path id="node_outline40" fill="none" stroke="none" d="M482.50001095980406,1151.5000201240182h58a5,5,0,0,1,5,5v12a5,5,0,0,1,-5,5h-58a5,5,0,0,1,-5,-5v-12a5,5,0,0,1,5,-5z" stroke-width="3"></path><g id="node_text40" fill="black"><text id="kity_text_342" text-rendering="inherit" font-size="12" dy=".8em" y="1156.5000201240182" x="487.50001095980406">定时服务</text></g></g><g id="minder_node41"><g id="node_expander40" style="cursor: pointer;" display="none"><path id="kity_path_353" fill="white" stroke="gray" d="M453.5000103637576,1214.5000208988786A6,6,0,1,1,441.5000103637576,1214.5000208988786A6,6,0,1,1,453.5000103637576,1214.5000208988786"></path><path id="kity_path_354" fill="none" stroke="gray"></path></g><path id="node_outline41" fill="none" stroke="none" d="M458.5000106021762,1203.5000208988786h34a5,5,0,0,1,5,5v12a5,5,0,0,1,-5,5h-34a5,5,0,0,1,-5,-5v-12a5,5,0,0,1,5,-5z" stroke-width="3"></path><g id="node_text41" fill="black"><text id="kity_text_350" text-rendering="inherit" font-size="12" dy=".8em" y="1208.5000208988786" x="463.5000106021762">定义</text></g></g><g id="minder_node42"><g id="node_expander41" style="cursor: pointer;" display="none"><path id="kity_path_361" fill="white" stroke="gray" d="M453.5000103637576,1266.500021673739A6,6,0,1,1,441.5000103637576,1266.500021673739A6,6,0,1,1,453.5000103637576,1266.500021673739"></path><path id="kity_path_362" fill="none" stroke="gray"></path></g><path id="node_outline42" fill="none" stroke="none" d="M458.5000106021762,1255.500021673739h34a5,5,0,0,1,5,5v12a5,5,0,0,1,-5,5h-34a5,5,0,0,1,-5,-5v-12a5,5,0,0,1,5,-5z" stroke-width="3"></path><g id="node_text42" fill="black"><text id="kity_text_358" text-rendering="inherit" font-size="12" dy=".8em" y="1260.500021673739" x="463.5000106021762">分支</text></g></g><g id="minder_node43"><g id="node_expander42" style="cursor: pointer;" display="none"><path id="kity_path_369" fill="white" stroke="gray" d="M453.5000103637576,1318.5000224485993A6,6,0,1,1,441.5000103637576,1318.5000224485993A6,6,0,1,1,453.5000103637576,1318.5000224485993"></path><path id="kity_path_370" fill="none" stroke="gray"></path></g><path id="node_outline43" fill="none" stroke="none" d="M458.5000106021762,1307.5000224485993h58a5,5,0,0,1,5,5v12a5,5,0,0,1,-5,5h-58a5,5,0,0,1,-5,-5v-12a5,5,0,0,1,5,-5z" stroke-width="3"></path><g id="node_text43" fill="black"><text id="kity_text_366" text-rendering="inherit" font-size="12" dy=".8em" y="1312.5000224485993" x="463.5000106021762">内核安全</text></g></g><g id="minder_node44" opacity="1"><g id="node_expander43" style="cursor: pointer;"><path id="kity_path_377" fill="white" stroke="gray" d="M154.5000059083104,2034.5000331178308A6,6,0,1,1,142.5000059083104,2034.5000331178308A6,6,0,1,1,154.5000059083104,2034.5000331178308"></path><path id="kity_path_378" fill="none" stroke="gray" d="M144.0000059083104,2034.5000331178308L153.0000059083104,2034.5000331178308"></path></g><path id="node_outline44" fill="rgb(238, 246, 238)" stroke="rgb(115, 191, 118)" d="M158.50000631064177,2021.5000331178308h97a3,3,0,0,1,3,3v20a3,3,0,0,1,-3,3h-97a3,3,0,0,1,-3,-3v-20a3,3,0,0,1,3,-3z" stroke-width="1"></path><g id="node_text44" fill="black"><text id="kity_text_374" text-rendering="inherit" font-size="14" dy=".8em" y="2027.5000331178308" x="175.50000631064177">Linux渗透</text></g></g><g id="minder_node14"><g id="node_expander13" style="cursor: pointer;" display="none"><path id="kity_path_132" fill="white" stroke="gray" d="M575.5000121816993,31.500003270804882A6,6,0,1,1,563.5000121816993,31.500003270804882A6,6,0,1,1,575.5000121816993,31.500003270804882"></path><path id="kity_path_133" fill="none" stroke="gray"></path></g><path id="node_outline14" fill="none" stroke="none" d="M580.5000124201179,20.500003270804882h34a5,5,0,0,1,5,5v12a5,5,0,0,1,-5,5h-34a5,5,0,0,1,-5,-5v-12a5,5,0,0,1,5,-5z" stroke-width="3"></path><g id="node_text14" fill="black"><text id="kity_text_129" text-rendering="inherit" font-size="12" dy=".8em" y="25.500003270804882" x="585.5000124201179">图形</text></g></g><g id="minder_node15"><g id="node_expander14" style="cursor: pointer;" display="none"><path id="kity_path_140" fill="white" stroke="gray" d="M575.5000121816993,83.50000404566526A6,6,0,1,1,563.5000121816993,83.50000404566526A6,6,0,1,1,575.5000121816993,83.50000404566526"></path><path id="kity_path_141" fill="none" stroke="gray"></path></g><path id="node_outline15" fill="none" stroke="none" d="M580.5000124201179,72.50000404566526h34a5,5,0,0,1,5,5v12a5,5,0,0,1,-5,5h-34a5,5,0,0,1,-5,-5v-12a5,5,0,0,1,5,-5z" stroke-width="3"></path><g id="node_text15" fill="black"><text id="kity_text_137" text-rendering="inherit" font-size="12" dy=".8em" y="77.50000404566526" x="585.5000124201179">文字</text></g></g><g id="minder_node6"><g id="node_expander5" style="cursor: pointer;"><path id="kity_path_68" fill="white" stroke="gray" d="M491.50001093000174,57.50000365823507A6,6,0,1,1,479.50001093000174,57.50000365823507A6,6,0,1,1,491.50001093000174,57.50000365823507"></path><path id="kity_path_69" fill="none" stroke="gray" d="M481.00001093000174,57.50000365823507L490.00001093000174,57.50000365823507"></path></g><path id="node_outline6" fill="none" stroke="none" d="M496.5000111684203,46.50000365823507h34a5,5,0,0,1,5,5v12a5,5,0,0,1,-5,5h-34a5,5,0,0,1,-5,-5v-12a5,5,0,0,1,5,-5z" stroke-width="3"></path><g id="node_text6" fill="black"><text id="kity_text_65" text-rendering="inherit" font-size="12" dy=".8em" y="51.50000365823507" x="501.5000111684203">安装</text></g></g><g id="minder_node7"><g id="node_expander6" style="cursor: pointer;" display="none"><path id="kity_path_76" fill="white" stroke="gray" d="M491.50001093000174,135.50000482052565A6,6,0,1,1,479.50001093000174,135.50000482052565A6,6,0,1,1,491.50001093000174,135.50000482052565"></path><path id="kity_path_77" fill="none" stroke="gray"></path></g><path id="node_outline7" fill="none" stroke="none" d="M496.5000111684203,124.50000482052565h58a5,5,0,0,1,5,5v12a5,5,0,0,1,-5,5h-58a5,5,0,0,1,-5,-5v-12a5,5,0,0,1,5,-5z" stroke-width="3"></path><g id="node_text7" fill="black"><text id="kity_text_73" text-rendering="inherit" font-size="12" dy=".8em" y="129.50000482052565" x="501.5000111684203">配置网络</text></g></g><g id="minder_node17"><g id="node_expander16" style="cursor: pointer;" display="none"><path id="kity_path_156" fill="white" stroke="gray" d="M599.5000125393271,187.50000559538603A6,6,0,1,1,587.5000125393271,187.50000559538603A6,6,0,1,1,599.5000125393271,187.50000559538603"></path><path id="kity_path_157" fill="none" stroke="gray"></path></g><path id="node_outline17" fill="none" stroke="none" d="M604.5000127777457,176.50000559538603h29a5,5,0,0,1,5,5v12a5,5,0,0,1,-5,5h-29a5,5,0,0,1,-5,-5v-12a5,5,0,0,1,5,-5z" stroke-width="3"></path><g id="node_text17" fill="black"><text id="kity_text_153" text-rendering="inherit" font-size="12" dy=".8em" y="181.50000559538603" x="609.5000127777457">ssh</text></g></g><g id="minder_node18"><g id="node_expander17" style="cursor: pointer;" display="none"><path id="kity_path_164" fill="white" stroke="gray" d="M599.5000125393271,239.5000063702464A6,6,0,1,1,587.5000125393271,239.5000063702464A6,6,0,1,1,599.5000125393271,239.5000063702464"></path><path id="kity_path_165" fill="none" stroke="gray"></path></g><path id="node_outline18" fill="none" stroke="none" d="M604.5000127777457,228.5000063702464h34a5,5,0,0,1,5,5v12a5,5,0,0,1,-5,5h-34a5,5,0,0,1,-5,-5v-12a5,5,0,0,1,5,-5z" stroke-width="3"></path><g id="node_text18" fill="black"><text id="kity_text_161" text-rendering="inherit" font-size="12" dy=".8em" y="233.5000063702464" x="609.5000127777457">私钥</text></g></g><g id="minder_node8"><g id="node_expander7" style="cursor: pointer;"><path id="kity_path_84" fill="white" stroke="gray" d="M491.50001093000174,213.50000598281622A6,6,0,1,1,479.50001093000174,213.50000598281622A6,6,0,1,1,491.50001093000174,213.50000598281622"></path><path id="kity_path_85" fill="none" stroke="gray" d="M481.00001093000174,213.50000598281622L490.00001093000174,213.50000598281622"></path></g><path id="node_outline8" fill="none" stroke="none" d="M496.5000111684203,202.50000598281622h58a5,5,0,0,1,5,5v12a5,5,0,0,1,-5,5h-58a5,5,0,0,1,-5,-5v-12a5,5,0,0,1,5,-5z" stroke-width="3"></path><g id="node_text8" fill="black"><text id="kity_text_81" text-rendering="inherit" font-size="12" dy=".8em" y="207.50000598281622" x="501.5000111684203">远程管理</text></g></g><g id="minder_node27"><g id="node_expander26" style="cursor: pointer;" display="none"><path id="kity_path_241" fill="white" stroke="gray" d="M623.500012896955,291.5000071451068A6,6,0,1,1,611.500012896955,291.5000071451068A6,6,0,1,1,623.500012896955,291.5000071451068"></path><path id="kity_path_242" fill="none" stroke="gray"></path></g><path id="node_outline27" fill="none" stroke="none" d="M628.5000131353736,280.5000071451068h45a5,5,0,0,1,5,5v12a5,5,0,0,1,-5,5h-45a5,5,0,0,1,-5,-5v-12a5,5,0,0,1,5,-5z" stroke-width="3"></path><g id="node_text27" fill="black"><text id="kity_text_238" text-rendering="inherit" font-size="12" dy=".8em" y="285.5000071451068" x="633.5000131353736">update</text></g></g><g id="minder_node28"><g id="node_expander27" style="cursor: pointer;" display="none"><path id="kity_path_249" fill="white" stroke="gray" d="M623.500012896955,343.5000079199672A6,6,0,1,1,611.500012896955,343.5000079199672A6,6,0,1,1,623.500012896955,343.5000079199672"></path><path id="kity_path_250" fill="none" stroke="gray"></path></g><path id="node_outline28" fill="none" stroke="none" d="M628.5000131353736,332.5000079199672h52a5,5,0,0,1,5,5v12a5,5,0,0,1,-5,5h-52a5,5,0,0,1,-5,-5v-12a5,5,0,0,1,5,-5z" stroke-width="3"></path><g id="node_text28" fill="black"><text id="kity_text_246" text-rendering="inherit" font-size="12" dy=".8em" y="337.5000079199672" x="633.5000131353736">upgrade</text></g></g><g id="minder_node9"><g id="node_expander8" style="cursor: pointer;"><path id="kity_path_92" fill="white" stroke="gray" d="M491.50001093000174,317.500007532537A6,6,0,1,1,479.50001093000174,317.500007532537A6,6,0,1,1,491.50001093000174,317.500007532537"></path><path id="kity_path_93" fill="none" stroke="gray" d="M481.00001093000174,317.500007532537L490.00001093000174,317.500007532537"></path></g><path id="node_outline9" fill="none" stroke="none" d="M496.5000111684203,306.500007532537h82a5,5,0,0,1,5,5v12a5,5,0,0,1,-5,5h-82a5,5,0,0,1,-5,-5v-12a5,5,0,0,1,5,-5z" stroke-width="3"></path><g id="node_text9" fill="black"><text id="kity_text_89" text-rendering="inherit" font-size="12" dy=".8em" y="311.500007532537" x="501.5000111684203">升级更新系统</text></g></g><g id="minder_node12"><g id="node_expander11" style="cursor: pointer;" display="none"><path id="kity_path_116" fill="white" stroke="gray" d="M599.5000125393271,395.50000869482756A6,6,0,1,1,587.5000125393271,395.50000869482756A6,6,0,1,1,599.5000125393271,395.50000869482756"></path><path id="kity_path_117" fill="none" stroke="gray"></path></g><path id="node_outline12" fill="none" stroke="none" d="M604.5000127777457,384.50000869482756h58a5,5,0,0,1,5,5v12a5,5,0,0,1,-5,5h-58a5,5,0,0,1,-5,-5v-12a5,5,0,0,1,5,-5z" stroke-width="3"></path><g id="node_text12" fill="black"><text id="kity_text_113" text-rendering="inherit" font-size="12" dy=".8em" y="389.50000869482756" x="609.5000127777457">软件中心</text></g></g><g id="minder_node13"><g id="node_expander12" style="cursor: pointer;" display="none"><path id="kity_path_124" fill="white" stroke="gray" d="M599.5000125393271,447.50000946968794A6,6,0,1,1,587.5000125393271,447.50000946968794A6,6,0,1,1,599.5000125393271,447.50000946968794"></path><path id="kity_path_125" fill="none" stroke="gray"></path></g><path id="node_outline13" fill="none" stroke="none" d="M604.5000127777457,436.50000946968794h58a5,5,0,0,1,5,5v12a5,5,0,0,1,-5,5h-58a5,5,0,0,1,-5,-5v-12a5,5,0,0,1,5,-5z" stroke-width="3"></path><g id="node_text13" fill="black"><text id="kity_text_121" text-rendering="inherit" font-size="12" dy=".8em" y="441.50000946968794" x="609.5000127777457">源码安装</text></g></g><g id="minder_node10"><g id="node_expander9" style="cursor: pointer;"><path id="kity_path_100" fill="white" stroke="gray" d="M491.50001093000174,421.50000908225775A6,6,0,1,1,479.50001093000174,421.50000908225775A6,6,0,1,1,491.50001093000174,421.50000908225775"></path><path id="kity_path_101" fill="none" stroke="gray" d="M481.00001093000174,421.50000908225775L490.00001093000174,421.50000908225775"></path></g><path id="node_outline10" fill="none" stroke="none" d="M496.5000111684203,410.50000908225775h58a5,5,0,0,1,5,5v12a5,5,0,0,1,-5,5h-58a5,5,0,0,1,-5,-5v-12a5,5,0,0,1,5,-5z" stroke-width="3"></path><g id="node_text10" fill="black"><text id="kity_text_97" text-rendering="inherit" font-size="12" dy=".8em" y="415.50000908225775" x="501.5000111684203">软件安装</text></g></g><g id="minder_node24"><g id="node_expander23" style="cursor: pointer;" display="none"><path id="kity_path_217" fill="white" stroke="gray" d="M587.5000123605132,499.5000102445483A6,6,0,1,1,575.5000123605132,499.5000102445483A6,6,0,1,1,587.5000123605132,499.5000102445483"></path><path id="kity_path_218" fill="none" stroke="gray" d="M577.0000123605132,499.5000102445483L586.0000123605132,499.5000102445483"></path></g><path id="node_outline24" fill="none" stroke="none" d="M592.5000125989318,488.5000102445483h34a5,5,0,0,1,5,5v12a5,5,0,0,1,-5,5h-34a5,5,0,0,1,-5,-5v-12a5,5,0,0,1,5,-5z" stroke-width="3"></path><g id="node_text24" fill="black"><text id="kity_text_214" text-rendering="inherit" font-size="12" dy=".8em" y="493.5000102445483" x="597.5000125989318">开启</text></g></g><g id="minder_node25"><g id="node_expander24" style="cursor: pointer;" display="none"><path id="kity_path_225" fill="white" stroke="gray" d="M587.5000123605132,551.5000110194087A6,6,0,1,1,575.5000123605132,551.5000110194087A6,6,0,1,1,587.5000123605132,551.5000110194087"></path><path id="kity_path_226" fill="none" stroke="gray"></path></g><path id="node_outline25" fill="none" stroke="none" d="M592.5000125989318,540.5000110194087h34a5,5,0,0,1,5,5v12a5,5,0,0,1,-5,5h-34a5,5,0,0,1,-5,-5v-12a5,5,0,0,1,5,-5z" stroke-width="3"></path><g id="node_text25" fill="black"><text id="kity_text_222" text-rendering="inherit" font-size="12" dy=".8em" y="545.5000110194087" x="597.5000125989318">关闭</text></g></g><g id="minder_node11"><g id="node_expander10" style="cursor: pointer;"><path id="kity_path_108" fill="white" stroke="gray" d="M491.50001093000174,525.5000106319785A6,6,0,1,1,479.50001093000174,525.5000106319785A6,6,0,1,1,491.50001093000174,525.5000106319785"></path><path id="kity_path_109" fill="none" stroke="gray" d="M481.00001093000174,525.5000106319785L490.00001093000174,525.5000106319785"></path></g><path id="node_outline11" fill="none" stroke="none" d="M496.5000111684203,514.5000106319785h46a5,5,0,0,1,5,5v12a5,5,0,0,1,-5,5h-46a5,5,0,0,1,-5,-5v-12a5,5,0,0,1,5,-5z" stroke-width="3"></path><g id="node_text11" fill="black"><text id="kity_text_105" text-rendering="inherit" font-size="12" dy=".8em" y="519.5000106319785" x="501.5000111684203">防火墙</text></g></g><g id="minder_node19"><g id="node_expander18" style="cursor: pointer;" display="none"><path id="kity_path_172" fill="white" stroke="gray" d="M587.5000123605132,603.5000117942691A6,6,0,1,1,575.5000123605132,603.5000117942691A6,6,0,1,1,587.5000123605132,603.5000117942691"></path><path id="kity_path_173" fill="none" stroke="gray"></path></g><path id="node_outline19" fill="none" stroke="none" d="M592.5000125989318,592.5000117942691h46a5,5,0,0,1,5,5v12a5,5,0,0,1,-5,5h-46a5,5,0,0,1,-5,-5v-12a5,5,0,0,1,5,-5z" stroke-width="3"></path><g id="node_text19" fill="black"><text id="kity_text_169" text-rendering="inherit" font-size="12" dy=".8em" y="597.5000117942691" x="597.5000125989318">emacs</text></g></g><g id="minder_node20"><g id="node_expander19" style="cursor: pointer;" display="none"><path id="kity_path_180" fill="white" stroke="gray" d="M587.5000123605132,655.5000125691295A6,6,0,1,1,575.5000123605132,655.5000125691295A6,6,0,1,1,587.5000123605132,655.5000125691295"></path><path id="kity_path_181" fill="none" stroke="gray"></path></g><path id="node_outline20" fill="none" stroke="none" d="M592.5000125989318,644.5000125691295h29a5,5,0,0,1,5,5v12a5,5,0,0,1,-5,5h-29a5,5,0,0,1,-5,-5v-12a5,5,0,0,1,5,-5z" stroke-width="3"></path><g id="node_text20" fill="black"><text id="kity_text_177" text-rendering="inherit" font-size="12" dy=".8em" y="649.5000125691295" x="597.5000125989318">vim</text></g></g><g id="minder_node21"><g id="node_expander20" style="cursor: pointer;" display="none"><path id="kity_path_188" fill="white" stroke="gray" d="M587.5000123605132,707.5000133439898A6,6,0,1,1,575.5000123605132,707.5000133439898A6,6,0,1,1,587.5000123605132,707.5000133439898"></path><path id="kity_path_189" fill="none" stroke="gray"></path></g><path id="node_outline21" fill="none" stroke="none" d="M592.5000125989318,696.5000133439898h58a5,5,0,0,1,5,5v12a5,5,0,0,1,-5,5h-58a5,5,0,0,1,-5,-5v-12a5,5,0,0,1,5,-5z" stroke-width="3"></path><g id="node_text21" fill="black"><text id="kity_text_185" text-rendering="inherit" font-size="12" dy=".8em" y="701.5000133439898" x="597.5000125989318">分支主题</text></g><g id="node_priority1" display="none"><path id="kity_path_192" fill="#840023" stroke="none" d="M573.0000122338533,711.0000132024288c0,3.866,3.134,7,7,7h6c3.866,0,7,-3.134,7,-7V705.0000132024288H573.0000122338533V711.0000132024288z"></path><path id="kity_path_193" fill="#FF1200" stroke="none" d="M593.0000122338533,708.0000132024288c0,3.866,-3.134,7,-7,7H580.0000122338533c-3.866,0,-7,-3.134,-7,-7V705.0000132024288c0,-3.866,3.134,-7,7,-7h6c3.866,0,7,3.134,7,7V708.0000132024288z" opacity="0.8"></path><text id="kity_text_194" text-rendering="geometricPrecision" x="582.0000122264028" y="707.5000131949782" text-anchor="middle" font-style="italic" font-size="12" fill="white" dy="4">1</text></g></g><g id="minder_node16"><g id="node_expander15" style="cursor: pointer;"><path id="kity_path_148" fill="white" stroke="gray" d="M491.50001093000174,655.5000125691295A6,6,0,1,1,479.50001093000174,655.5000125691295A6,6,0,1,1,491.50001093000174,655.5000125691295"></path><path id="kity_path_149" fill="none" stroke="gray" d="M481.00001093000174,655.5000125691295L490.00001093000174,655.5000125691295"></path></g><path id="node_outline16" fill="none" stroke="none" d="M496.5000111684203,644.5000125691295h46a5,5,0,0,1,5,5v12a5,5,0,0,1,-5,5h-46a5,5,0,0,1,-5,-5v-12a5,5,0,0,1,5,-5z" stroke-width="3"></path><g id="node_text16" fill="black"><text id="kity_text_145" text-rendering="inherit" font-size="12" dy=".8em" y="649.5000125691295" x="501.5000111684203">编辑器</text></g></g><g id="minder_node30"><g id="node_expander29" style="cursor: pointer;" display="none"><path id="kity_path_265" fill="white" stroke="gray" d="M599.5000125393271,759.5000141188502A6,6,0,1,1,587.5000125393271,759.5000141188502A6,6,0,1,1,599.5000125393271,759.5000141188502"></path><path id="kity_path_266" fill="none" stroke="gray"></path></g><path id="node_outline30" fill="none" stroke="none" d="M604.5000127777457,748.5000141188502h58a5,5,0,0,1,5,5v12a5,5,0,0,1,-5,5h-58a5,5,0,0,1,-5,-5v-12a5,5,0,0,1,5,-5z" stroke-width="3"></path><g id="node_text30" fill="black"><text id="kity_text_262" text-rendering="inherit" font-size="12" dy=".8em" y="753.5000141188502" x="609.5000127777457">日志追踪</text></g></g><g id="minder_node29"><g id="node_expander28" style="cursor: pointer;"><path id="kity_path_257" fill="white" stroke="gray" d="M491.50001093000174,759.5000141188502A6,6,0,1,1,479.50001093000174,759.5000141188502A6,6,0,1,1,491.50001093000174,759.5000141188502"></path><path id="kity_path_258" fill="none" stroke="gray" d="M481.00001093000174,759.5000141188502L490.00001093000174,759.5000141188502"></path></g><path id="node_outline29" fill="none" stroke="none" d="M496.5000111684203,748.5000141188502h58a5,5,0,0,1,5,5v12a5,5,0,0,1,-5,5h-58a5,5,0,0,1,-5,-5v-12a5,5,0,0,1,5,-5z" stroke-width="3"></path><g id="node_text29" fill="black"><text id="kity_text_254" text-rendering="inherit" font-size="12" dy=".8em" y="753.5000141188502" x="501.5000111684203">故障排除</text></g></g><g id="minder_node32"><g id="node_expander31" style="cursor: pointer;" display="none"><path id="kity_path_281" fill="white" stroke="gray" d="M599.5000125393271,811.5000148937106A6,6,0,1,1,587.5000125393271,811.5000148937106A6,6,0,1,1,599.5000125393271,811.5000148937106"></path><path id="kity_path_282" fill="none" stroke="gray"></path></g><path id="node_outline32" fill="none" stroke="none" d="M604.5000127777457,800.5000148937106h34a5,5,0,0,1,5,5v12a5,5,0,0,1,-5,5h-34a5,5,0,0,1,-5,-5v-12a5,5,0,0,1,5,-5z" stroke-width="3"></path><g id="node_text32" fill="black"><text id="kity_text_278" text-rendering="inherit" font-size="12" dy=".8em" y="805.5000148937106" x="609.5000127777457">添加</text></g></g><g id="minder_node33"><g id="node_expander32" style="cursor: pointer;" display="none"><path id="kity_path_289" fill="white" stroke="gray" d="M599.5000125393271,863.500015668571A6,6,0,1,1,587.5000125393271,863.500015668571A6,6,0,1,1,599.5000125393271,863.500015668571"></path><path id="kity_path_290" fill="none" stroke="gray"></path></g><path id="node_outline33" fill="none" stroke="none" d="M604.5000127777457,852.500015668571h34a5,5,0,0,1,5,5v12a5,5,0,0,1,-5,5h-34a5,5,0,0,1,-5,-5v-12a5,5,0,0,1,5,-5z" stroke-width="3"></path><g id="node_text33" fill="black"><text id="kity_text_286" text-rendering="inherit" font-size="12" dy=".8em" y="857.500015668571" x="609.5000127777457">删除</text></g></g><g id="minder_node34"><g id="node_expander33" style="cursor: pointer;" display="none"><path id="kity_path_297" fill="white" stroke="gray" d="M599.5000125393271,915.5000164434314A6,6,0,1,1,587.5000125393271,915.5000164434314A6,6,0,1,1,599.5000125393271,915.5000164434314"></path><path id="kity_path_298" fill="none" stroke="gray"></path></g><path id="node_outline34" fill="none" stroke="none" d="M604.5000127777457,904.5000164434314h46a5,5,0,0,1,5,5v12a5,5,0,0,1,-5,5h-46a5,5,0,0,1,-5,-5v-12a5,5,0,0,1,5,-5z" stroke-width="3"></path><g id="node_text34" fill="black"><text id="kity_text_294" text-rendering="inherit" font-size="12" dy=".8em" y="909.5000164434314" x="609.5000127777457">修改组</text></g></g><g id="minder_node31"><g id="node_expander30" style="cursor: pointer;"><path id="kity_path_273" fill="white" stroke="gray" d="M491.50001093000174,863.500015668571A6,6,0,1,1,479.50001093000174,863.500015668571A6,6,0,1,1,491.50001093000174,863.500015668571"></path><path id="kity_path_274" fill="none" stroke="gray" d="M481.00001093000174,863.500015668571L490.00001093000174,863.500015668571"></path></g><path id="node_outline31" fill="none" stroke="none" d="M496.5000111684203,852.500015668571h58a5,5,0,0,1,5,5v12a5,5,0,0,1,-5,5h-58a5,5,0,0,1,-5,-5v-12a5,5,0,0,1,5,-5z" stroke-width="3"></path><g id="node_text31" fill="black"><text id="kity_text_270" text-rendering="inherit" font-size="12" dy=".8em" y="857.500015668571" x="501.5000111684203">账户管理</text></g></g><g id="minder_node75" opacity="1"><g id="node_expander74" style="cursor: pointer;"><path id="kity_path_728" fill="white" stroke="gray" d="M240.50000718981028,2741.5000436529517A6,6,0,1,1,228.50000718981028,2741.5000436529517A6,6,0,1,1,240.50000718981028,2741.5000436529517"></path><path id="kity_path_729" fill="none" stroke="gray" d="M230.00000718981028,2741.5000436529517L239.00000718981028,2741.5000436529517"></path></g><path id="node_outline75" fill="rgb(238, 246, 238)" stroke="rgb(115, 191, 118)" d="M127.50000584870577,2728.5000436529517h97a3,3,0,0,1,3,3v20a3,3,0,0,1,-3,3h-97a3,3,0,0,1,-3,-3v-20a3,3,0,0,1,3,-3z" stroke-width="1"></path><g id="node_text75" fill="black"><text id="kity_text_725" text-rendering="inherit" font-size="14" dy=".8em" y="2734.5000436529517" x="144.50000584870577">Linux安全</text></g></g><g id="minder_node45" opacity="1"><g id="node_expander44" style="cursor: pointer;" display="none"><path id="kity_path_385" fill="white" stroke="gray" d="M303.50000812858343,1573.5000262483954A6,6,0,1,1,291.50000812858343,1573.5000262483954A6,6,0,1,1,303.50000812858343,1573.5000262483954"></path><path id="kity_path_386" fill="none" stroke="gray"></path></g><path id="node_outline45" fill="none" stroke="none" d="M308.500008367002,1562.5000262483954h58a5,5,0,0,1,5,5v12a5,5,0,0,1,-5,5h-58a5,5,0,0,1,-5,-5v-12a5,5,0,0,1,5,-5z" stroke-width="3"></path><g id="node_text45" fill="black"><text id="kity_text_382" text-rendering="inherit" font-size="12" dy=".8em" y="1567.5000262483954" x="313.500008367002">SQL注入</text></g></g><g id="minder_node46" opacity="1"><g id="node_expander45" style="cursor: pointer;" display="none"><path id="kity_path_393" fill="white" stroke="gray" d="M298.5000080540776,1625.5000270232558A6,6,0,1,1,286.5000080540776,1625.5000270232558A6,6,0,1,1,298.5000080540776,1625.5000270232558"></path><path id="kity_path_394" fill="none" stroke="gray" d="M288.0000080540776,1625.5000270232558L297.0000080540776,1625.5000270232558"></path></g><path id="node_outline46" fill="none" stroke="none" d="M303.5000082924962,1614.5000270232558h94a5,5,0,0,1,5,5v12a5,5,0,0,1,-5,5h-94a5,5,0,0,1,-5,-5v-12a5,5,0,0,1,5,-5z" stroke-width="3"></path><g id="node_text46" fill="black"><text id="kity_text_390" text-rendering="inherit" font-size="12" dy=".8em" y="1619.5000270232558" x="308.5000082924962">端口和应用扫描</text></g></g><g id="minder_node53"><g id="node_expander52" style="cursor: pointer;" display="none"><path id="kity_path_491" fill="white" stroke="gray" d="M490.5000109151006,1677.5000277981162A6,6,0,1,1,478.5000109151006,1677.5000277981162A6,6,0,1,1,490.5000109151006,1677.5000277981162"></path><path id="kity_path_492" fill="none" stroke="gray"></path></g><path id="node_outline53" fill="none" stroke="none" d="M495.50001115351915,1666.5000277981162h82a5,5,0,0,1,5,5v12a5,5,0,0,1,-5,5h-82a5,5,0,0,1,-5,-5v-12a5,5,0,0,1,5,-5z" stroke-width="3"></path><g id="node_text53" fill="black"><text id="kity_text_488" text-rendering="inherit" font-size="12" dy=".8em" y="1671.5000277981162" x="500.50001115351915">端口绑定木马</text></g></g><g id="minder_node54"><g id="node_expander53" style="cursor: pointer;" display="none"><path id="kity_path_499" fill="white" stroke="gray" d="M490.5000109151006,1729.5000285729766A6,6,0,1,1,478.5000109151006,1729.5000285729766A6,6,0,1,1,490.5000109151006,1729.5000285729766"></path><path id="kity_path_500" fill="none" stroke="gray"></path></g><path id="node_outline54" fill="none" stroke="none" d="M495.50001115351915,1718.5000285729766h58a5,5,0,0,1,5,5v12a5,5,0,0,1,-5,5h-58a5,5,0,0,1,-5,-5v-12a5,5,0,0,1,5,-5z" stroke-width="3"></path><g id="node_text54" fill="black"><text id="kity_text_496" text-rendering="inherit" font-size="12" dy=".8em" y="1723.5000285729766" x="500.50001115351915">回连木马</text></g></g><g id="minder_node55"><g id="node_expander54" style="cursor: pointer;" display="none"><path id="kity_path_507" fill="white" stroke="gray" d="M490.5000109151006,1781.500029347837A6,6,0,1,1,478.5000109151006,1781.500029347837A6,6,0,1,1,490.5000109151006,1781.500029347837"></path><path id="kity_path_508" fill="none" stroke="gray"></path></g><path id="node_outline55" fill="none" stroke="none" d="M495.50001115351915,1770.500029347837h82a5,5,0,0,1,5,5v12a5,5,0,0,1,-5,5h-82a5,5,0,0,1,-5,-5v-12a5,5,0,0,1,5,-5z" stroke-width="3"></path><g id="node_text55" fill="black"><text id="kity_text_504" text-rendering="inherit" font-size="12" dy=".8em" y="1775.500029347837" x="500.50001115351915">端口复用木马</text></g></g><g id="minder_node51"><g id="node_expander50" style="cursor: pointer;"><path id="kity_path_475" fill="white" stroke="gray" d="M406.50000966340303,1729.5000285729766A6,6,0,1,1,394.50000966340303,1729.5000285729766A6,6,0,1,1,406.50000966340303,1729.5000285729766"></path><path id="kity_path_476" fill="none" stroke="gray" d="M396.00000966340303,1729.5000285729766L405.00000966340303,1729.5000285729766"></path></g><path id="node_outline51" fill="none" stroke="none" d="M411.5000099018216,1718.5000285729766h34a5,5,0,0,1,5,5v12a5,5,0,0,1,-5,5h-34a5,5,0,0,1,-5,-5v-12a5,5,0,0,1,5,-5z" stroke-width="3"></path><g id="node_text51" fill="black"><text id="kity_text_472" text-rendering="inherit" font-size="12" dy=".8em" y="1723.5000285729766" x="416.5000099018216">方式</text></g></g><g id="minder_node56"><g id="node_expander55" style="cursor: pointer;" display="none"><path id="kity_path_515" fill="white" stroke="gray" d="M490.5000109151006,1833.5000301226974A6,6,0,1,1,478.5000109151006,1833.5000301226974A6,6,0,1,1,490.5000109151006,1833.5000301226974"></path><path id="kity_path_516" fill="none" stroke="gray"></path></g><path id="node_outline56" fill="none" stroke="none" d="M495.50001115351915,1822.5000301226974h56a5,5,0,0,1,5,5v12a5,5,0,0,1,-5,5h-56a5,5,0,0,1,-5,-5v-12a5,5,0,0,1,5,-5z" stroke-width="3"></path><g id="node_text56" fill="black"><text id="kity_text_512" text-rendering="inherit" font-size="12" dy=".8em" y="1827.5000301226974" x="500.50001115351915">web木马</text></g></g><g id="minder_node57"><g id="node_expander56" style="cursor: pointer;" display="none"><path id="kity_path_523" fill="white" stroke="gray" d="M490.5000109151006,1885.5000308975577A6,6,0,1,1,478.5000109151006,1885.5000308975577A6,6,0,1,1,490.5000109151006,1885.5000308975577"></path><path id="kity_path_524" fill="none" stroke="gray"></path></g><path id="node_outline57" fill="none" stroke="none" d="M495.50001115351915,1874.5000308975577h82a5,5,0,0,1,5,5v12a5,5,0,0,1,-5,5h-82a5,5,0,0,1,-5,-5v-12a5,5,0,0,1,5,-5z" stroke-width="3"></path><g id="node_text57" fill="black"><text id="kity_text_520" text-rendering="inherit" font-size="12" dy=".8em" y="1879.5000308975577" x="500.50001115351915">应用空间木马</text></g></g><g id="minder_node58"><g id="node_expander57" style="cursor: pointer;" display="none"><path id="kity_path_531" fill="white" stroke="gray" d="M490.5000109151006,1937.5000316724181A6,6,0,1,1,478.5000109151006,1937.5000316724181A6,6,0,1,1,490.5000109151006,1937.5000316724181"></path><path id="kity_path_532" fill="none" stroke="gray"></path></g><path id="node_outline58" fill="none" stroke="none" d="M495.50001115351915,1926.5000316724181h82a5,5,0,0,1,5,5v12a5,5,0,0,1,-5,5h-82a5,5,0,0,1,-5,-5v-12a5,5,0,0,1,5,-5z" stroke-width="3"></path><g id="node_text58" fill="black"><text id="kity_text_528" text-rendering="inherit" font-size="12" dy=".8em" y="1931.5000316724181" x="500.50001115351915">内核空间木马</text></g></g><g id="minder_node52"><g id="node_expander51" style="cursor: pointer;"><path id="kity_path_483" fill="white" stroke="gray" d="M406.50000966340303,1885.5000308975577A6,6,0,1,1,394.50000966340303,1885.5000308975577A6,6,0,1,1,406.50000966340303,1885.5000308975577"></path><path id="kity_path_484" fill="none" stroke="gray" d="M396.00000966340303,1885.5000308975577L405.00000966340303,1885.5000308975577"></path></g><path id="node_outline52" fill="none" stroke="none" d="M411.5000099018216,1874.5000308975577h34a5,5,0,0,1,5,5v12a5,5,0,0,1,-5,5h-34a5,5,0,0,1,-5,-5v-12a5,5,0,0,1,5,-5z" stroke-width="3"></path><g id="node_text52" fill="black"><text id="kity_text_480" text-rendering="inherit" font-size="12" dy=".8em" y="1879.5000308975577" x="416.5000099018216">层次</text></g></g><g id="minder_node48"><g id="node_expander47" style="cursor: pointer;"><path id="kity_path_444" fill="white" stroke="gray" d="M298.5000080540776,1807.5000297352672A6,6,0,1,1,286.5000080540776,1807.5000297352672A6,6,0,1,1,298.5000080540776,1807.5000297352672"></path><path id="kity_path_445" fill="none" stroke="gray" d="M288.0000080540776,1807.5000297352672L297.0000080540776,1807.5000297352672"></path></g><path id="node_outline48" fill="none" stroke="none" d="M303.5000082924962,1796.5000297352672h58a5,5,0,0,1,5,5v12a5,5,0,0,1,-5,5h-58a5,5,0,0,1,-5,-5v-12a5,5,0,0,1,5,-5z" stroke-width="3"></path><g id="node_text48" fill="black"><text id="kity_text_441" text-rendering="inherit" font-size="12" dy=".8em" y="1801.5000297352672" x="308.5000082924962">木马后台</text></g></g><g id="minder_node59"><g id="node_expander58" style="cursor: pointer;" display="none"><path id="kity_path_539" fill="white" stroke="gray" d="M406.50000966340303,1989.5000324472785A6,6,0,1,1,394.50000966340303,1989.5000324472785A6,6,0,1,1,406.50000966340303,1989.5000324472785"></path><path id="kity_path_540" fill="none" stroke="gray"></path></g><path id="node_outline59" fill="none" stroke="none" d="M411.5000099018216,1978.5000324472785h34a5,5,0,0,1,5,5v12a5,5,0,0,1,-5,5h-34a5,5,0,0,1,-5,-5v-12a5,5,0,0,1,5,-5z" stroke-width="3"></path><g id="node_text59" fill="black"><text id="kity_text_536" text-rendering="inherit" font-size="12" dy=".8em" y="1983.5000324472785" x="416.5000099018216">方式</text></g></g><g id="minder_node66"><g id="node_expander65" style="cursor: pointer;" display="none"><path id="kity_path_652" fill="white" stroke="gray" d="M598.500012524426,2041.5000332221389A6,6,0,1,1,586.500012524426,2041.5000332221389A6,6,0,1,1,598.500012524426,2041.5000332221389"></path><path id="kity_path_653" fill="none" stroke="gray"></path></g><path id="node_outline66" fill="none" stroke="none" d="M603.5000127628446,2030.5000332221389h29a5,5,0,0,1,5,5v12a5,5,0,0,1,-5,5h-29a5,5,0,0,1,-5,-5v-12a5,5,0,0,1,5,-5z" stroke-width="3"></path><g id="node_text66" fill="black"><text id="kity_text_649" text-rendering="inherit" font-size="12" dy=".8em" y="2035.5000332221389" x="608.5000127628446">ssh</text></g></g><g id="minder_node67"><g id="node_expander66" style="cursor: pointer;" display="none"><path id="kity_path_660" fill="white" stroke="gray" d="M598.500012524426,2093.5000339969993A6,6,0,1,1,586.500012524426,2093.5000339969993A6,6,0,1,1,598.500012524426,2093.5000339969993"></path><path id="kity_path_661" fill="none" stroke="gray"></path></g><path id="node_outline67" fill="none" stroke="none" d="M603.5000127628446,2082.5000339969993h33a5,5,0,0,1,5,5v12a5,5,0,0,1,-5,5h-33a5,5,0,0,1,-5,-5v-12a5,5,0,0,1,5,-5z" stroke-width="3"></path><g id="node_text67" fill="black"><text id="kity_text_657" text-rendering="inherit" font-size="12" dy=".8em" y="2087.5000339969993" x="608.5000127628446">smb</text></g></g><g id="minder_node68"><g id="node_expander67" style="cursor: pointer;" display="none"><path id="kity_path_668" fill="white" stroke="gray" d="M598.500012524426,2145.5000347718596A6,6,0,1,1,586.500012524426,2145.5000347718596A6,6,0,1,1,598.500012524426,2145.5000347718596"></path><path id="kity_path_669" fill="none" stroke="gray"></path></g><path id="node_outline68" fill="none" stroke="none" d="M603.5000127628446,2134.5000347718596h55a5,5,0,0,1,5,5v12a5,5,0,0,1,-5,5h-55a5,5,0,0,1,-5,-5v-12a5,5,0,0,1,5,-5z" stroke-width="3"></path><g id="node_text68" fill="black"><text id="kity_text_665" text-rendering="inherit" font-size="12" dy=".8em" y="2139.5000347718596" x="608.5000127628446">http auth</text></g></g><g id="minder_node69"><g id="node_expander68" style="cursor: pointer;" display="none"><path id="kity_path_676" fill="white" stroke="gray" d="M598.500012524426,2197.50003554672A6,6,0,1,1,586.500012524426,2197.50003554672A6,6,0,1,1,598.500012524426,2197.50003554672"></path><path id="kity_path_677" fill="none" stroke="gray"></path></g><path id="node_outline69" fill="none" stroke="none" d="M603.5000127628446,2186.50003554672h36a5,5,0,0,1,5,5v12a5,5,0,0,1,-5,5h-36a5,5,0,0,1,-5,-5v-12a5,5,0,0,1,5,-5z" stroke-width="3"></path><g id="node_text69" fill="black"><text id="kity_text_673" text-rendering="inherit" font-size="12" dy=".8em" y="2191.50003554672" x="608.5000127628446">smtp</text></g></g><g id="minder_node61"><g id="node_expander60" style="cursor: pointer;"><path id="kity_path_555" fill="white" stroke="gray" d="M490.5000109151006,2119.5000343844295A6,6,0,1,1,478.5000109151006,2119.5000343844295A6,6,0,1,1,490.5000109151006,2119.5000343844295"></path><path id="kity_path_556" fill="none" stroke="gray" d="M480.0000109151006,2119.5000343844295L489.0000109151006,2119.5000343844295"></path></g><path id="node_outline61" fill="none" stroke="none" d="M495.50001115351915,2108.5000343844295h58a5,5,0,0,1,5,5v12a5,5,0,0,1,-5,5h-58a5,5,0,0,1,-5,-5v-12a5,5,0,0,1,5,-5z" stroke-width="3"></path><g id="node_text61" fill="black"><text id="kity_text_552" text-rendering="inherit" font-size="12" dy=".8em" y="2113.5000343844295" x="500.50001115351915">远程破解</text></g></g><g id="minder_node63"><g id="node_expander62" style="cursor: pointer;" display="none"><path id="kity_path_571" fill="white" stroke="gray" d="M598.500012524426,2249.5000363215804A6,6,0,1,1,586.500012524426,2249.5000363215804A6,6,0,1,1,598.500012524426,2249.5000363215804"></path><path id="kity_path_572" fill="none" stroke="gray"></path></g><path id="node_outline63" fill="none" stroke="none" d="M603.5000127628446,2238.5000363215804h33a5,5,0,0,1,5,5v12a5,5,0,0,1,-5,5h-33a5,5,0,0,1,-5,-5v-12a5,5,0,0,1,5,-5z" stroke-width="3"></path><g id="node_text63" fill="black"><text id="kity_text_568" text-rendering="inherit" font-size="12" dy=".8em" y="2243.5000363215804" x="608.5000127628446">md5</text></g></g><g id="minder_node64"><g id="node_expander63" style="cursor: pointer;" display="none"><path id="kity_path_636" fill="white" stroke="gray" d="M598.500012524426,2301.500037096441A6,6,0,1,1,586.500012524426,2301.500037096441A6,6,0,1,1,598.500012524426,2301.500037096441"></path><path id="kity_path_637" fill="none" stroke="gray"></path></g><path id="node_outline64" fill="none" stroke="none" d="M603.5000127628446,2290.500037096441h78a5,5,0,0,1,5,5v12a5,5,0,0,1,-5,5h-78a5,5,0,0,1,-5,-5v-12a5,5,0,0,1,5,-5z" stroke-width="3"></path><g id="node_text64" fill="black"><text id="kity_text_633" text-rendering="inherit" font-size="12" dy=".8em" y="2295.500037096441" x="608.5000127628446">linux shadow</text></g></g><g id="minder_node65"><g id="node_expander64" style="cursor: pointer;" display="none"><path id="kity_path_644" fill="white" stroke="gray" d="M598.500012524426,2353.500037871301A6,6,0,1,1,586.500012524426,2353.500037871301A6,6,0,1,1,598.500012524426,2353.500037871301"></path><path id="kity_path_645" fill="none" stroke="gray"></path></g><path id="node_outline65" fill="none" stroke="none" d="M603.5000127628446,2342.500037871301h32a5,5,0,0,1,5,5v12a5,5,0,0,1,-5,5h-32a5,5,0,0,1,-5,-5v-12a5,5,0,0,1,5,-5z" stroke-width="3"></path><g id="node_text65" fill="black"><text id="kity_text_641" text-rendering="inherit" font-size="12" dy=".8em" y="2347.500037871301" x="608.5000127628446">ntlm</text></g></g><g id="minder_node62"><g id="node_expander61" style="cursor: pointer;"><path id="kity_path_563" fill="white" stroke="gray" d="M490.5000109151006,2301.500037096441A6,6,0,1,1,478.5000109151006,2301.500037096441A6,6,0,1,1,490.5000109151006,2301.500037096441"></path><path id="kity_path_564" fill="none" stroke="gray" d="M480.0000109151006,2301.500037096441L489.0000109151006,2301.500037096441"></path></g><path id="node_outline62" fill="none" stroke="none" d="M495.50001115351915,2290.500037096441h58a5,5,0,0,1,5,5v12a5,5,0,0,1,-5,5h-58a5,5,0,0,1,-5,-5v-12a5,5,0,0,1,5,-5z" stroke-width="3"></path><g id="node_text62" fill="black"><text id="kity_text_560" text-rendering="inherit" font-size="12" dy=".8em" y="2295.500037096441" x="500.50001115351915">本地破解</text></g></g><g id="minder_node60"><g id="node_expander59" style="cursor: pointer;"><path id="kity_path_547" fill="white" stroke="gray" d="M406.50000966340303,2210.500035740435A6,6,0,1,1,394.50000966340303,2210.500035740435A6,6,0,1,1,406.50000966340303,2210.500035740435"></path><path id="kity_path_548" fill="none" stroke="gray" d="M396.00000966340303,2210.500035740435L405.00000966340303,2210.500035740435"></path></g><path id="node_outline60" fill="none" stroke="none" d="M411.5000099018216,2199.500035740435h34a5,5,0,0,1,5,5v12a5,5,0,0,1,-5,5h-34a5,5,0,0,1,-5,-5v-12a5,5,0,0,1,5,-5z" stroke-width="3"></path><g id="node_text60" fill="black"><text id="kity_text_544" text-rendering="inherit" font-size="12" dy=".8em" y="2204.500035740435" x="416.5000099018216">类型</text></g></g><g id="minder_node49"><g id="node_expander48" style="cursor: pointer;"><path id="kity_path_453" fill="white" stroke="gray" d="M298.5000080540776,2099.5000340864062A6,6,0,1,1,286.5000080540776,2099.5000340864062A6,6,0,1,1,298.5000080540776,2099.5000340864062"></path><path id="kity_path_454" fill="none" stroke="gray" d="M288.0000080540776,2099.5000340864062L297.0000080540776,2099.5000340864062"></path></g><path id="node_outline49" fill="none" stroke="none" d="M303.5000082924962,2088.5000340864062h58a5,5,0,0,1,5,5v12a5,5,0,0,1,-5,5h-58a5,5,0,0,1,-5,-5v-12a5,5,0,0,1,5,-5z" stroke-width="3"></path><g id="node_text49" fill="black"><text id="kity_text_450" text-rendering="inherit" font-size="12" dy=".8em" y="2093.5000340864062" x="308.5000082924962">密码破解</text></g></g><g id="minder_node71"><g id="node_expander70" style="cursor: pointer;" display="none"><path id="kity_path_692" fill="white" stroke="gray" d="M484.5000108256936,2446.500039257109A6,6,0,1,1,472.5000108256936,2446.500039257109A6,6,0,1,1,484.5000108256936,2446.500039257109"></path><path id="kity_path_693" fill="none" stroke="gray"></path></g><path id="node_outline71" fill="none" stroke="none" d="M489.5000110641122,2435.500039257109h32a5,5,0,0,1,5,5v12a5,5,0,0,1,-5,5h-32a5,5,0,0,1,-5,-5v-12a5,5,0,0,1,5,-5z" stroke-width="3"></path><g id="node_text71" fill="black"><text id="kity_text_689" text-rendering="inherit" font-size="12" dy=".8em" y="2440.500039257109" x="494.5000110641122">wep</text></g></g><g id="minder_node72"><g id="node_expander71" style="cursor: pointer;" display="none"><path id="kity_path_700" fill="white" stroke="gray" d="M484.5000108256936,2498.5000400319695A6,6,0,1,1,472.5000108256936,2498.5000400319695A6,6,0,1,1,484.5000108256936,2498.5000400319695"></path><path id="kity_path_701" fill="none" stroke="gray"></path></g><path id="node_outline72" fill="none" stroke="none" d="M489.5000110641122,2487.5000400319695h33a5,5,0,0,1,5,5v12a5,5,0,0,1,-5,5h-33a5,5,0,0,1,-5,-5v-12a5,5,0,0,1,5,-5z" stroke-width="3"></path><g id="node_text72" fill="black"><text id="kity_text_697" text-rendering="inherit" font-size="12" dy=".8em" y="2492.5000400319695" x="494.5000110641122">wpa</text></g></g><g id="minder_node70" opacity="1"><g id="node_expander69" style="cursor: pointer;"><path id="kity_path_684" fill="white" stroke="gray" d="M400.50000957399607,2472.5000396445394A6,6,0,1,1,388.50000957399607,2472.5000396445394A6,6,0,1,1,400.50000957399607,2472.5000396445394"></path><path id="kity_path_685" fill="none" stroke="gray" d="M390.00000957399607,2472.5000396445394L399.00000957399607,2472.5000396445394"></path></g><path id="node_outline70" fill="none" stroke="none" d="M405.50000981241465,2461.5000396445394h34a5,5,0,0,1,5,5v12a5,5,0,0,1,-5,5h-34a5,5,0,0,1,-5,-5v-12a5,5,0,0,1,5,-5z" stroke-width="3"></path><g id="node_text70" fill="black"><text id="kity_text_681" text-rendering="inherit" font-size="12" dy=".8em" y="2466.5000396445394" x="410.50000981241465">对象</text></g></g><g id="minder_node73" opacity="1"><g id="node_expander72" style="cursor: pointer;" display="none"><path id="kity_path_708" fill="white" stroke="gray" d="M399.5000095590949,2553.5000408515334A6,6,0,1,1,387.5000095590949,2553.5000408515334A6,6,0,1,1,399.5000095590949,2553.5000408515334"></path><path id="kity_path_709" fill="none" stroke="gray"></path></g><path id="node_outline73" fill="none" stroke="none" d="M404.5000097975135,2542.5000408515334h34a5,5,0,0,1,5,5v12a5,5,0,0,1,-5,5h-34a5,5,0,0,1,-5,-5v-12a5,5,0,0,1,5,-5z" stroke-width="3"></path><g id="node_text73" fill="black"><text id="kity_text_705" text-rendering="inherit" font-size="12" dy=".8em" y="2547.5000408515334" x="409.5000097975135">工具</text></g></g><g id="minder_node74" opacity="1"><g id="node_expander73" style="cursor: pointer;" display="none"><path id="kity_path_716" fill="white" stroke="gray" d="M397.5000095292926,2416.5000388100743A6,6,0,1,1,385.5000095292926,2416.5000388100743A6,6,0,1,1,397.5000095292926,2416.5000388100743"></path><path id="kity_path_717" fill="none" stroke="gray"></path></g><path id="node_outline74" fill="none" stroke="none" d="M402.50000976771116,2405.5000388100743h34a5,5,0,0,1,5,5v12a5,5,0,0,1,-5,5h-34a5,5,0,0,1,-5,-5v-12a5,5,0,0,1,5,-5z" stroke-width="3"></path><g id="node_text74" fill="black"><text id="kity_text_713" text-rendering="inherit" font-size="12" dy=".8em" y="2410.5000388100743" x="407.50000976771116">原理</text></g></g><g id="minder_node50"><g id="node_expander49" style="cursor: pointer;"><path id="kity_path_461" fill="white" stroke="gray" d="M298.5000080540776,2496.500040002167A6,6,0,1,1,286.5000080540776,2496.500040002167A6,6,0,1,1,298.5000080540776,2496.500040002167"></path><path id="kity_path_462" fill="none" stroke="gray" d="M288.0000080540776,2496.500040002167L297.0000080540776,2496.500040002167"></path></g><path id="node_outline50" fill="none" stroke="none" d="M303.5000082924962,2485.500040002167h52a5,5,0,0,1,5,5v12a5,5,0,0,1,-5,5h-52a5,5,0,0,1,-5,-5v-12a5,5,0,0,1,5,-5z" stroke-width="3"></path><g id="node_text50" fill="black"><text id="kity_text_458" text-rendering="inherit" font-size="12" dy=".8em" y="2490.500040002167" x="308.5000082924962">wifi攻击</text></g></g><g id="minder_node76" opacity="1"><g id="node_expander75" style="cursor: pointer;"><path id="kity_path_946" fill="white" stroke="gray" d="M380.50000927597284,2568.500041075051A6,6,0,1,1,368.50000927597284,2568.500041075051A6,6,0,1,1,380.50000927597284,2568.500041075051"></path><path id="kity_path_947" fill="none" stroke="gray" d="M370.00000927597284,2568.500041075051L379.00000927597284,2568.500041075051"></path></g><path id="node_outline76" fill="none" stroke="none" d="M305.5000083222985,2557.500041075051h58a5,5,0,0,1,5,5v12a5,5,0,0,1,-5,5h-58a5,5,0,0,1,-5,-5v-12a5,5,0,0,1,5,-5z" stroke-width="3"></path><g id="node_text76" fill="black"><text id="kity_text_943" text-rendering="inherit" font-size="12" dy=".8em" y="2562.500041075051" x="310.5000083222985">漏洞扫描</text></g></g><g id="minder_node77" opacity="1"><g id="node_expander76" style="cursor: pointer;"><path id="kity_path_954" fill="white" stroke="gray" d="M369.50000911206007,2722.5000433698297A6,6,0,1,1,357.50000911206007,2722.5000433698297A6,6,0,1,1,369.50000911206007,2722.5000433698297"></path><path id="kity_path_955" fill="none" stroke="gray" d="M359.00000911206007,2722.5000433698297L368.00000911206007,2722.5000433698297"></path></g><path id="node_outline77" fill="none" stroke="none" d="M294.50000815838575,2711.5000433698297h58a5,5,0,0,1,5,5v12a5,5,0,0,1,-5,5h-58a5,5,0,0,1,-5,-5v-12a5,5,0,0,1,5,-5z" stroke-width="3"></path><g id="node_text77" fill="black"><text id="kity_text_951" text-rendering="inherit" font-size="12" dy=".8em" y="2716.5000433698297" x="299.50000815838575">安全加固</text></g></g><g id="minder_node78" opacity="1"><g id="node_expander77" style="cursor: pointer;" display="none"><path id="kity_path_962" fill="white" stroke="gray" d="M365.5000090524554,2880.500045724213A6,6,0,1,1,353.5000090524554,2880.500045724213A6,6,0,1,1,365.5000090524554,2880.500045724213"></path><path id="kity_path_963" fill="none" stroke="gray"></path></g><path id="node_outline78" fill="none" stroke="none" d="M290.5000080987811,2869.500045724213h58a5,5,0,0,1,5,5v12a5,5,0,0,1,-5,5h-58a5,5,0,0,1,-5,-5v-12a5,5,0,0,1,5,-5z" stroke-width="3"></path><g id="node_text78" fill="black"><text id="kity_text_959" text-rendering="inherit" font-size="12" dy=".8em" y="2874.500045724213" x="295.5000080987811">安全检查</text></g></g><g id="minder_node79" opacity="1"><g id="node_expander78" style="cursor: pointer;" display="none"><path id="kity_path_970" fill="white" stroke="gray" d="M520.5000113621354,2523.5000404044986A6,6,0,1,1,508.5000113621354,2523.5000404044986A6,6,0,1,1,520.5000113621354,2523.5000404044986"></path><path id="kity_path_971" fill="none" stroke="gray"></path></g><path id="node_outline79" fill="none" stroke="none" d="M469.50001076608896,2512.5000404044986h34a5,5,0,0,1,5,5v12a5,5,0,0,1,-5,5h-34a5,5,0,0,1,-5,-5v-12a5,5,0,0,1,5,-5z" stroke-width="3"></path><g id="node_text79" fill="black"><text id="kity_text_967" text-rendering="inherit" font-size="12" dy=".8em" y="2517.5000404044986" x="474.50001076608896">目标</text></g></g><g id="minder_node80" opacity="1"><g id="node_expander79" style="cursor: pointer;" display="none"><path id="kity_path_978" fill="white" stroke="gray" d="M523.5000114068389,2594.500041462481A6,6,0,1,1,511.5000114068389,2594.500041462481A6,6,0,1,1,523.5000114068389,2594.500041462481"></path><path id="kity_path_979" fill="none" stroke="gray"></path></g><path id="node_outline80" fill="none" stroke="none" d="M472.50001081079245,2583.500041462481h34a5,5,0,0,1,5,5v12a5,5,0,0,1,-5,5h-34a5,5,0,0,1,-5,-5v-12a5,5,0,0,1,5,-5z" stroke-width="3"></path><g id="node_text80" fill="black"><text id="kity_text_975" text-rendering="inherit" font-size="12" dy=".8em" y="2588.500041462481" x="477.50001081079245">工具</text></g></g><g id="minder_node81" opacity="1"><g id="node_expander80" style="cursor: pointer;" display="none"><path id="kity_path_988" fill="white" stroke="gray" d="M499.500011049211,2732.5000435188413A6,6,0,1,1,487.500011049211,2732.5000435188413A6,6,0,1,1,499.500011049211,2732.5000435188413"></path><path id="kity_path_989" fill="none" stroke="gray"></path></g><path id="node_outline81" fill="none" stroke="none" d="M448.5000104531646,2721.5000435188413h34a5,5,0,0,1,5,5v12a5,5,0,0,1,-5,5h-34a5,5,0,0,1,-5,-5v-12a5,5,0,0,1,5,-5z" stroke-width="3"></path><g id="node_text81" fill="black"><text id="kity_text_985" text-rendering="inherit" font-size="12" dy=".8em" y="2726.5000435188413" x="453.5000104531646">工具</text></g></g><g id="minder_node82" opacity="1"><g id="node_expander81" style="cursor: pointer;" display="none"><path id="kity_path_996" fill="white" stroke="gray" d="M506.50001115351915,2676.5000426843762A6,6,0,1,1,494.50001115351915,2676.5000426843762A6,6,0,1,1,506.50001115351915,2676.5000426843762"></path><path id="kity_path_997" fill="none" stroke="gray"></path></g><path id="node_outline82" fill="none" stroke="none" d="M455.5000105574727,2665.5000426843762h34a5,5,0,0,1,5,5v12a5,5,0,0,1,-5,5h-34a5,5,0,0,1,-5,-5v-12a5,5,0,0,1,5,-5z" stroke-width="3"></path><g id="node_text82" fill="black"><text id="kity_text_993" text-rendering="inherit" font-size="12" dy=".8em" y="2670.5000426843762" x="460.5000105574727">目标</text></g></g><g id="kity_g_12" display="none"><path id="kity_path_13" fill="none" stroke="rgb(66, 94, 112)" d="M294.50000435858965,2789.500022895634h58a5,5,0,0,1,5,5v12a5,5,0,0,1,-5,5h-58a5,5,0,0,1,-5,-5v-12a5,5,0,0,1,5,-5z" stroke-width="5"></path></g><g id="minder_node83" opacity="1"><g id="node_expander82" style="cursor: pointer;" display="none"><path id="kity_path_1004" fill="white" stroke="gray" d="M344.50000873953104,1411.5000238344073A6,6,0,1,1,332.50000873953104,1411.5000238344073A6,6,0,1,1,344.50000873953104,1411.5000238344073"></path><path id="kity_path_1005" fill="none" stroke="gray"></path></g><path id="node_outline83" fill="rgb(238, 246, 238)" stroke="rgb(115, 191, 118)" d="M238.50000750273466,1398.5000238344073h90a3,3,0,0,1,3,3v20a3,3,0,0,1,-3,3h-90a3,3,0,0,1,-3,-3v-20a3,3,0,0,1,3,-3z" stroke-width="1"></path><g id="node_text83" fill="black"><text id="kity_text_1001" text-rendering="inherit" font-size="14" dy=".8em" y="1404.5000238344073" x="255.50000750273466">项目管理</text></g></g></g></g></svg>